<svg xmlns="http://www.w3.org/2000/svg" viewBox="0 0 256 256" role="img" aria-labelledby="title desc">
  <title id="title">GSM Student Portal</title>
  <desc id="desc">Futuristic GSM logo mark for the student portal.</desc>
  <defs>
    <linearGradient id="bg" x1="32" y1="20" x2="226" y2="236" gradientUnits="userSpaceOnUse">
      <stop stop-color="#061827" />
      <stop offset="0.58" stop-color="#09283a" />
      <stop offset="1" stop-color="#030a14" />
    </linearGradient>
    <linearGradient id="edge" x1="44" y1="46" x2="218" y2="210" gradientUnits="userSpaceOnUse">
      <stop stop-color="#35f5e6" />
      <stop offset="0.52" stop-color="#00c2ff" />
      <stop offset="1" stop-color="#7cf9ff" />
    </linearGradient>
    <filter id="glow" x="-30%" y="-30%" width="160%" height="160%" color-interpolation-filters="sRGB">
      <feDropShadow dx="0" dy="0" stdDeviation="8" flood-color="#00c2ff" flood-opacity="0.48" />
      <feDropShadow dx="0" dy="0" stdDeviation="18" flood-color="#35f5e6" flood-opacity="0.18" />
    </filter>
  </defs>
  <rect x="15" y="15" width="226" height="226" rx="42" fill="url(#bg)" />
  <rect x="20" y="20" width="216" height="216" rx="37" fill="none" stroke="url(#edge)" stroke-width="5" />
  <path d="M63 78h42m46 0h42M63 178h42m46 0h42M78 63v42m100-42v42M78 151v42m100-42v42" stroke="url(#edge)" stroke-width="8" stroke-linecap="round" opacity="0.78" />
  <path d="M62 128h34m64 0h34M128 62v34m0 64v34" stroke="#7cf9ff" stroke-width="6" stroke-linecap="round" opacity="0.42" />
  <circle cx="78" cy="78" r="10" fill="#35f5e6" filter="url(#glow)" />
  <circle cx="178" cy="78" r="10" fill="#00c2ff" filter="url(#glow)" />
  <circle cx="78" cy="178" r="10" fill="#00c2ff" filter="url(#glow)" />
  <circle cx="178" cy="178" r="10" fill="#35f5e6" filter="url(#glow)" />
  <rect x="56" y="91" width="144" height="74" rx="18" fill="#06111f" opacity="0.9" stroke="url(#edge)" stroke-width="3" />
  <text x="128" y="139" fill="#ffffff" font-family="Inter, Segoe UI, Arial, sans-serif" font-size="45" font-weight="800" letter-spacing="1.5" text-anchor="middle">GSM</text>
</svg>
